<svg width="24" height="25" viewBox="0 0 24 25" fill="none" xmlns="http://www.w3.org/2000/svg">
<g id="Icon">
<path id="Vector" d="M20.2303 11.5783C20.2019 11.4581 20.1443 11.3468 20.0625 11.2542C19.9807 11.1617 19.8773 11.0907 19.7616 11.0477L14.3606 9.02178L15.735 2.14709C15.7661 1.98736 15.7444 1.82184 15.6732 1.67551C15.602 1.52918 15.4852 1.40998 15.3403 1.33589C15.1954 1.26181 15.0303 1.23686 14.87 1.26481C14.7097 1.29276 14.5628 1.37209 14.4516 1.49084L3.95156 12.7408C3.86628 12.8307 3.80459 12.9403 3.772 13.0598C3.7394 13.1793 3.73692 13.3051 3.76478 13.4258C3.79264 13.5465 3.84996 13.6584 3.93163 13.7516C4.01331 13.8447 4.11678 13.9162 4.23281 13.9596L9.63563 15.9855L8.265 22.8527C8.23388 23.0124 8.25555 23.178 8.32676 23.3243C8.39796 23.4706 8.51482 23.5898 8.65971 23.6639C8.8046 23.738 8.96966 23.763 9.12998 23.735C9.29029 23.7071 9.43717 23.6277 9.54844 23.509L20.0484 12.259C20.1322 12.1691 20.1926 12.06 20.2243 11.9413C20.256 11.8227 20.2581 11.698 20.2303 11.5783ZM10.2534 20.5624L11.235 15.6518C11.2701 15.4776 11.2423 15.2966 11.1564 15.1411C11.0706 14.9855 10.9323 14.8655 10.7663 14.8024L5.8125 12.9415L13.7456 4.44209L12.765 9.35272C12.7299 9.52688 12.7577 9.70785 12.8436 9.8634C12.9294 10.019 13.0677 10.139 13.2338 10.2021L18.1838 12.0583L10.2534 20.5624Z" fill="#FAFAFA"/>
</g>
</svg>
